<svg width="48" height="48" viewBox="0 0 48 48" fill="none" xmlns="http://www.w3.org/2000/svg">
  <defs>
    <linearGradient id="mainGradient" x1="0%" y1="0%" x2="100%" y2="100%">
      <stop offset="0%" style="stop-color:#10b981;stop-opacity:1" />
      <stop offset="100%" style="stop-color:#0d9488;stop-opacity:1" />
    </linearGradient>
    <linearGradient id="accentGradient" x1="0%" y1="0%" x2="100%" y2="100%">
      <stop offset="0%" style="stop-color:#f59e0b;stop-opacity:1" />
      <stop offset="100%" style="stop-color:#10b981;stop-opacity:1" />
    </linearGradient>
  </defs>
  
  <!-- Background circle -->
  <circle cx="24" cy="24" r="22" fill="url(#mainGradient)" opacity="0.1"/>
  
  <!-- Main gear/cog icon -->
  <g transform="translate(24, 24)">
    <!-- Gear teeth -->
    <path d="M-8,-2 L-6,-2 L-6,-4 L-2,-4 L-2,-6 L2,-6 L2,-4 L6,-4 L6,-2 L8,-2 L8,2 L6,2 L6,4 L2,4 L2,6 L-2,6 L-2,4 L-6,4 L-6,2 L-8,2 Z" fill="url(#mainGradient)" opacity="0.3"/>
    <!-- Center circle -->
    <circle cx="0" cy="0" r="8" fill="url(#mainGradient)"/>
    <!-- Inner circle -->
    <circle cx="0" cy="0" r="4" fill="white"/>
    <!-- Center dot -->
    <circle cx="0" cy="0" r="1.5" fill="url(#accentGradient)"/>
  </g>
  
  <!-- Recommendation arrows -->
  <g transform="translate(24, 24)">
    <!-- Top arrow -->
    <path d="M-3,-12 L-1,-10 L-1,-8 L1,-8 L1,-10 L3,-12 L2,-12 L2,-14 L-2,-14 L-2,-12 Z" fill="url(#accentGradient)"/>
    <!-- Bottom arrow -->
    <path d="M-3,12 L-1,10 L-1,8 L1,8 L1,10 L3,12 L2,12 L2,14 L-2,14 L-2,12 Z" fill="url(#accentGradient)"/>
    <!-- Left arrow -->
    <path d="M-12,-3 L-10,-1 L-8,-1 L-8,1 L-10,1 L-12,3 L-12,2 L-14,2 L-14,-2 L-12,-2 Z" fill="url(#accentGradient)"/>
    <!-- Right arrow -->
    <path d="M12,-3 L10,-1 L8,-1 L8,1 L10,1 L12,3 L12,2 L14,2 L14,-2 L12,-2 Z" fill="url(#accentGradient)"/>
  </g>
  
  <!-- Small product icons around the perimeter -->
  <!-- Search icon (top-right) -->
  <g transform="translate(32, 12)">
    <circle cx="0" cy="0" r="2.5" fill="none" stroke="url(#mainGradient)" stroke-width="1.5"/>
    <path d="M2,2 L4,4" stroke="url(#mainGradient)" stroke-width="1.5" stroke-linecap="round"/>
  </g>
  
  <!-- Shopping bag (bottom-right) -->
  <g transform="translate(32, 36)">
    <path d="M-2,-3 L-1,-4 L1,-4 L2,-3 L2,2 L-2,2 Z" fill="url(#mainGradient)" opacity="0.7"/>
    <path d="M-1,-4 L-1,-6 M1,-4 L1,-6" stroke="url(#mainGradient)" stroke-width="1" stroke-linecap="round"/>
  </g>
  
  <!-- Heart/like (bottom-left) -->
  <g transform="translate(16, 36)">
    <path d="M0,1 C0,-1 -2,-1 -2,1 C-2,3 0,5 0,5 C0,5 2,3 2,1 C2,-1 0,-1 0,1 Z" fill="url(#mainGradient)" opacity="0.7"/>
  </g>
  
  <!-- Star (top-left) -->
  <g transform="translate(16, 12)">
    <path d="M0,-2 L0.5,-0.5 L2,0 L0.5,0.5 L0,2 L-0.5,0.5 L-2,0 L-0.5,-0.5 Z" fill="url(#mainGradient)" opacity="0.7"/>
  </g>
</svg>
